<mxfile host="app.diagrams.net" modified="2020-05-31T04:50:19.135Z" agent="5.0 (Windows)" etag="aaiZuDx_26G6pb16O5t5" version="13.1.9" type="github">
  <diagram id="unekgs6rDZwSWhFbVp5t" name="Page-1">
    <mxGraphModel dx="2272" dy="1891" grid="1" gridSize="10" guides="1" tooltips="1" connect="1" arrows="1" fold="1" page="1" pageScale="1" pageWidth="850" pageHeight="1100" math="0" shadow="0">
      <root>
        <mxCell id="0" />
        <mxCell id="1" parent="0" />
        <mxCell id="p-x26-pCPJ933fivSphl-55" style="edgeStyle=orthogonalEdgeStyle;rounded=0;orthogonalLoop=1;jettySize=auto;html=1;exitX=1;exitY=0.5;exitDx=0;exitDy=0;entryX=0;entryY=0.5;entryDx=0;entryDy=0;endArrow=ERoneToMany;endFill=0;" edge="1" parent="1" source="l6Wv7LGstVZR9h47YhLv-1" target="l6Wv7LGstVZR9h47YhLv-6">
          <mxGeometry relative="1" as="geometry" />
        </mxCell>
        <mxCell id="l6Wv7LGstVZR9h47YhLv-1" value="Vendor" style="swimlane;fontStyle=0;childLayout=stackLayout;horizontal=1;startSize=22;horizontalStack=0;resizeParent=1;resizeParentMax=0;resizeLast=0;collapsible=1;marginBottom=0;align=center;fontSize=14;fillColor=#0050ef;strokeColor=#001DBC;fontColor=#ffffff;" parent="1" vertex="1">
          <mxGeometry x="40" y="40" width="140" height="100" as="geometry" />
        </mxCell>
        <mxCell id="p-x26-pCPJ933fivSphl-17" value="AccountId*" style="text;strokeColor=#10739e;fillColor=#b1ddf0;spacingLeft=4;spacingRight=4;overflow=hidden;rotatable=0;points=[[0,0.5],[1,0.5]];portConstraint=eastwest;fontSize=12;fontStyle=1" vertex="1" parent="l6Wv7LGstVZR9h47YhLv-1">
          <mxGeometry y="22" width="140" height="26" as="geometry" />
        </mxCell>
        <mxCell id="l6Wv7LGstVZR9h47YhLv-2" value="VendorId*" style="text;strokeColor=#10739e;fillColor=#b1ddf0;spacingLeft=4;spacingRight=4;overflow=hidden;rotatable=0;points=[[0,0.5],[1,0.5]];portConstraint=eastwest;fontSize=12;fontStyle=1" parent="l6Wv7LGstVZR9h47YhLv-1" vertex="1">
          <mxGeometry y="48" width="140" height="26" as="geometry" />
        </mxCell>
        <mxCell id="l6Wv7LGstVZR9h47YhLv-3" value="VendorName" style="text;strokeColor=#10739e;fillColor=#b1ddf0;spacingLeft=4;spacingRight=4;overflow=hidden;rotatable=0;points=[[0,0.5],[1,0.5]];portConstraint=eastwest;fontSize=12;" parent="l6Wv7LGstVZR9h47YhLv-1" vertex="1">
          <mxGeometry y="74" width="140" height="26" as="geometry" />
        </mxCell>
        <mxCell id="p-x26-pCPJ933fivSphl-50" style="edgeStyle=orthogonalEdgeStyle;rounded=0;orthogonalLoop=1;jettySize=auto;html=1;exitX=1;exitY=0.25;exitDx=0;exitDy=0;entryX=0;entryY=0.5;entryDx=0;entryDy=0;endArrow=ERzeroToOne;endFill=1;" edge="1" parent="1" source="p-x26-pCPJ933fivSphl-18" target="p-x26-pCPJ933fivSphl-17">
          <mxGeometry relative="1" as="geometry" />
        </mxCell>
        <mxCell id="p-x26-pCPJ933fivSphl-68" style="edgeStyle=orthogonalEdgeStyle;rounded=0;orthogonalLoop=1;jettySize=auto;html=1;exitX=0;exitY=0.25;exitDx=0;exitDy=0;entryX=0;entryY=0.5;entryDx=0;entryDy=0;endArrow=ERmandOne;endFill=0;" edge="1" parent="1" source="p-x26-pCPJ933fivSphl-40" target="p-x26-pCPJ933fivSphl-53">
          <mxGeometry relative="1" as="geometry" />
        </mxCell>
        <mxCell id="p-x26-pCPJ933fivSphl-40" value="Driver" style="swimlane;fontStyle=0;childLayout=stackLayout;horizontal=1;startSize=22;horizontalStack=0;resizeParent=1;resizeParentMax=0;resizeLast=0;collapsible=1;marginBottom=0;align=center;fontSize=14;fillColor=#0050ef;strokeColor=#001DBC;fontColor=#ffffff;" vertex="1" parent="1">
          <mxGeometry x="-370" y="226" width="140" height="230" as="geometry" />
        </mxCell>
        <mxCell id="p-x26-pCPJ933fivSphl-41" value="AccountId*" style="text;strokeColor=#10739e;fillColor=#b1ddf0;spacingLeft=4;spacingRight=4;overflow=hidden;rotatable=0;points=[[0,0.5],[1,0.5]];portConstraint=eastwest;fontSize=12;fontStyle=1" vertex="1" parent="p-x26-pCPJ933fivSphl-40">
          <mxGeometry y="22" width="140" height="26" as="geometry" />
        </mxCell>
        <mxCell id="p-x26-pCPJ933fivSphl-42" value="DriverId*" style="text;strokeColor=#10739e;fillColor=#b1ddf0;spacingLeft=4;spacingRight=4;overflow=hidden;rotatable=0;points=[[0,0.5],[1,0.5]];portConstraint=eastwest;fontSize=12;fontStyle=1" vertex="1" parent="p-x26-pCPJ933fivSphl-40">
          <mxGeometry y="48" width="140" height="26" as="geometry" />
        </mxCell>
        <mxCell id="p-x26-pCPJ933fivSphl-43" value="Firstname" style="text;strokeColor=#10739e;fillColor=#b1ddf0;spacingLeft=4;spacingRight=4;overflow=hidden;rotatable=0;points=[[0,0.5],[1,0.5]];portConstraint=eastwest;fontSize=12;" vertex="1" parent="p-x26-pCPJ933fivSphl-40">
          <mxGeometry y="74" width="140" height="26" as="geometry" />
        </mxCell>
        <mxCell id="p-x26-pCPJ933fivSphl-44" value="Validated" style="text;strokeColor=#10739e;fillColor=#b1ddf0;spacingLeft=4;spacingRight=4;overflow=hidden;rotatable=0;points=[[0,0.5],[1,0.5]];portConstraint=eastwest;fontSize=12;" vertex="1" parent="p-x26-pCPJ933fivSphl-40">
          <mxGeometry y="100" width="140" height="26" as="geometry" />
        </mxCell>
        <mxCell id="p-x26-pCPJ933fivSphl-46" value="VehicleMake" style="text;strokeColor=#0e8088;fillColor=#b0e3e6;spacingLeft=4;spacingRight=4;overflow=hidden;rotatable=0;points=[[0,0.5],[1,0.5]];portConstraint=eastwest;fontSize=12;" vertex="1" parent="p-x26-pCPJ933fivSphl-40">
          <mxGeometry y="126" width="140" height="26" as="geometry" />
        </mxCell>
        <mxCell id="p-x26-pCPJ933fivSphl-47" value="VehicleModel" style="text;strokeColor=#0e8088;fillColor=#b0e3e6;spacingLeft=4;spacingRight=4;overflow=hidden;rotatable=0;points=[[0,0.5],[1,0.5]];portConstraint=eastwest;fontSize=12;" vertex="1" parent="p-x26-pCPJ933fivSphl-40">
          <mxGeometry y="152" width="140" height="26" as="geometry" />
        </mxCell>
        <mxCell id="p-x26-pCPJ933fivSphl-49" value="VehicleColor" style="text;strokeColor=#0e8088;fillColor=#b0e3e6;spacingLeft=4;spacingRight=4;overflow=hidden;rotatable=0;points=[[0,0.5],[1,0.5]];portConstraint=eastwest;fontSize=12;" vertex="1" parent="p-x26-pCPJ933fivSphl-40">
          <mxGeometry y="178" width="140" height="26" as="geometry" />
        </mxCell>
        <mxCell id="p-x26-pCPJ933fivSphl-48" value="VehicleYear" style="text;strokeColor=#0e8088;fillColor=#b0e3e6;spacingLeft=4;spacingRight=4;overflow=hidden;rotatable=0;points=[[0,0.5],[1,0.5]];portConstraint=eastwest;fontSize=12;" vertex="1" parent="p-x26-pCPJ933fivSphl-40">
          <mxGeometry y="204" width="140" height="26" as="geometry" />
        </mxCell>
        <mxCell id="p-x26-pCPJ933fivSphl-51" style="edgeStyle=orthogonalEdgeStyle;rounded=0;orthogonalLoop=1;jettySize=auto;html=1;exitX=1;exitY=0.25;exitDx=0;exitDy=0;entryX=0;entryY=0.25;entryDx=0;entryDy=0;endArrow=ERzeroToOne;endFill=1;" edge="1" parent="1" source="p-x26-pCPJ933fivSphl-18" target="p-x26-pCPJ933fivSphl-24">
          <mxGeometry relative="1" as="geometry" />
        </mxCell>
        <mxCell id="p-x26-pCPJ933fivSphl-52" style="edgeStyle=orthogonalEdgeStyle;rounded=0;orthogonalLoop=1;jettySize=auto;html=1;exitX=0;exitY=0.25;exitDx=0;exitDy=0;entryX=0;entryY=0.5;entryDx=0;entryDy=0;endArrow=ERzeroToOne;endFill=1;" edge="1" parent="1" source="p-x26-pCPJ933fivSphl-18" target="p-x26-pCPJ933fivSphl-41">
          <mxGeometry relative="1" as="geometry" />
        </mxCell>
        <mxCell id="p-x26-pCPJ933fivSphl-18" value="Account" style="swimlane;fontStyle=0;childLayout=stackLayout;horizontal=1;startSize=22;horizontalStack=0;resizeParent=1;resizeParentMax=0;resizeLast=0;collapsible=1;marginBottom=0;align=center;fontSize=14;fillColor=#0050ef;strokeColor=#001DBC;fontColor=#ffffff;" vertex="1" parent="1">
          <mxGeometry x="-210" y="14" width="140" height="126" as="geometry" />
        </mxCell>
        <mxCell id="p-x26-pCPJ933fivSphl-19" value="AccountId*" style="text;strokeColor=#10739e;fillColor=#b1ddf0;spacingLeft=4;spacingRight=4;overflow=hidden;rotatable=0;points=[[0,0.5],[1,0.5]];portConstraint=eastwest;fontSize=12;fontStyle=1" vertex="1" parent="p-x26-pCPJ933fivSphl-18">
          <mxGeometry y="22" width="140" height="26" as="geometry" />
        </mxCell>
        <mxCell id="p-x26-pCPJ933fivSphl-21" value="Username" style="text;strokeColor=#10739e;fillColor=#b1ddf0;spacingLeft=4;spacingRight=4;overflow=hidden;rotatable=0;points=[[0,0.5],[1,0.5]];portConstraint=eastwest;fontSize=12;" vertex="1" parent="p-x26-pCPJ933fivSphl-18">
          <mxGeometry y="48" width="140" height="26" as="geometry" />
        </mxCell>
        <mxCell id="p-x26-pCPJ933fivSphl-22" value="Email" style="text;strokeColor=#10739e;fillColor=#b1ddf0;spacingLeft=4;spacingRight=4;overflow=hidden;rotatable=0;points=[[0,0.5],[1,0.5]];portConstraint=eastwest;fontSize=12;" vertex="1" parent="p-x26-pCPJ933fivSphl-18">
          <mxGeometry y="74" width="140" height="26" as="geometry" />
        </mxCell>
        <mxCell id="p-x26-pCPJ933fivSphl-23" value="HashPass" style="text;strokeColor=#10739e;fillColor=#b1ddf0;spacingLeft=4;spacingRight=4;overflow=hidden;rotatable=0;points=[[0,0.5],[1,0.5]];portConstraint=eastwest;fontSize=12;" vertex="1" parent="p-x26-pCPJ933fivSphl-18">
          <mxGeometry y="100" width="140" height="26" as="geometry" />
        </mxCell>
        <mxCell id="p-x26-pCPJ933fivSphl-10" value="CustomerAddress" style="swimlane;fontStyle=0;childLayout=stackLayout;horizontal=1;startSize=22;horizontalStack=0;resizeParent=1;resizeParentMax=0;resizeLast=0;collapsible=1;marginBottom=0;align=center;fontSize=14;fillColor=#0050ef;strokeColor=#001DBC;fontColor=#ffffff;" vertex="1" parent="1">
          <mxGeometry x="-180" y="290" width="140" height="204" as="geometry" />
        </mxCell>
        <mxCell id="p-x26-pCPJ933fivSphl-11" value="CustomerId*" style="text;strokeColor=#10739e;fillColor=#b1ddf0;spacingLeft=4;spacingRight=4;overflow=hidden;rotatable=0;points=[[0,0.5],[1,0.5]];portConstraint=eastwest;fontSize=12;fontStyle=1" vertex="1" parent="p-x26-pCPJ933fivSphl-10">
          <mxGeometry y="22" width="140" height="26" as="geometry" />
        </mxCell>
        <mxCell id="p-x26-pCPJ933fivSphl-39" value="AddressId*" style="text;strokeColor=#0e8088;fillColor=#b0e3e6;spacingLeft=4;spacingRight=4;overflow=hidden;rotatable=0;points=[[0,0.5],[1,0.5]];portConstraint=eastwest;fontSize=12;fontStyle=1" vertex="1" parent="p-x26-pCPJ933fivSphl-10">
          <mxGeometry y="48" width="140" height="26" as="geometry" />
        </mxCell>
        <mxCell id="p-x26-pCPJ933fivSphl-12" value="Line1" style="text;strokeColor=#10739e;fillColor=#b1ddf0;spacingLeft=4;spacingRight=4;overflow=hidden;rotatable=0;points=[[0,0.5],[1,0.5]];portConstraint=eastwest;fontSize=12;" vertex="1" parent="p-x26-pCPJ933fivSphl-10">
          <mxGeometry y="74" width="140" height="26" as="geometry" />
        </mxCell>
        <mxCell id="p-x26-pCPJ933fivSphl-14" value="Line2" style="text;strokeColor=#10739e;fillColor=#b1ddf0;spacingLeft=4;spacingRight=4;overflow=hidden;rotatable=0;points=[[0,0.5],[1,0.5]];portConstraint=eastwest;fontSize=12;" vertex="1" parent="p-x26-pCPJ933fivSphl-10">
          <mxGeometry y="100" width="140" height="26" as="geometry" />
        </mxCell>
        <mxCell id="p-x26-pCPJ933fivSphl-15" value="City" style="text;strokeColor=#10739e;fillColor=#b1ddf0;spacingLeft=4;spacingRight=4;overflow=hidden;rotatable=0;points=[[0,0.5],[1,0.5]];portConstraint=eastwest;fontSize=12;" vertex="1" parent="p-x26-pCPJ933fivSphl-10">
          <mxGeometry y="126" width="140" height="26" as="geometry" />
        </mxCell>
        <mxCell id="p-x26-pCPJ933fivSphl-16" value="State" style="text;strokeColor=#10739e;fillColor=#b1ddf0;spacingLeft=4;spacingRight=4;overflow=hidden;rotatable=0;points=[[0,0.5],[1,0.5]];portConstraint=eastwest;fontSize=12;" vertex="1" parent="p-x26-pCPJ933fivSphl-10">
          <mxGeometry y="152" width="140" height="26" as="geometry" />
        </mxCell>
        <mxCell id="p-x26-pCPJ933fivSphl-37" value="Zip" style="text;strokeColor=#10739e;fillColor=#b1ddf0;spacingLeft=4;spacingRight=4;overflow=hidden;rotatable=0;points=[[0,0.5],[1,0.5]];portConstraint=eastwest;fontSize=12;" vertex="1" parent="p-x26-pCPJ933fivSphl-10">
          <mxGeometry y="178" width="140" height="26" as="geometry" />
        </mxCell>
        <mxCell id="p-x26-pCPJ933fivSphl-54" style="edgeStyle=orthogonalEdgeStyle;rounded=0;orthogonalLoop=1;jettySize=auto;html=1;exitX=0;exitY=0.5;exitDx=0;exitDy=0;entryX=1;entryY=0.25;entryDx=0;entryDy=0;endArrow=ERoneToMany;endFill=0;" edge="1" parent="1" source="p-x26-pCPJ933fivSphl-26" target="p-x26-pCPJ933fivSphl-10">
          <mxGeometry relative="1" as="geometry" />
        </mxCell>
        <mxCell id="p-x26-pCPJ933fivSphl-56" style="edgeStyle=orthogonalEdgeStyle;rounded=0;orthogonalLoop=1;jettySize=auto;html=1;exitX=1;exitY=0.25;exitDx=0;exitDy=0;entryX=0;entryY=0.5;entryDx=0;entryDy=0;endArrow=ERoneToMany;endFill=0;" edge="1" parent="1" source="l6Wv7LGstVZR9h47YhLv-5" target="l6Wv7LGstVZR9h47YhLv-14">
          <mxGeometry relative="1" as="geometry" />
        </mxCell>
        <mxCell id="p-x26-pCPJ933fivSphl-57" style="edgeStyle=orthogonalEdgeStyle;rounded=0;orthogonalLoop=1;jettySize=auto;html=1;exitX=1;exitY=0.25;exitDx=0;exitDy=0;entryX=1;entryY=0.5;entryDx=0;entryDy=0;endArrow=ERoneToMany;endFill=0;" edge="1" parent="1" source="l6Wv7LGstVZR9h47YhLv-5" target="p-x26-pCPJ933fivSphl-4">
          <mxGeometry relative="1" as="geometry" />
        </mxCell>
        <mxCell id="l6Wv7LGstVZR9h47YhLv-5" value="Store" style="swimlane;fontStyle=0;childLayout=stackLayout;horizontal=1;startSize=22;horizontalStack=0;resizeParent=1;resizeParentMax=0;resizeLast=0;collapsible=1;marginBottom=0;align=center;fontSize=14;fillColor=#0050ef;strokeColor=#001DBC;fontColor=#ffffff;" parent="1" vertex="1">
          <mxGeometry x="250" y="20" width="140" height="178" as="geometry" />
        </mxCell>
        <mxCell id="l6Wv7LGstVZR9h47YhLv-11" value="StoreId*" style="text;strokeColor=#10739e;fillColor=#b1ddf0;spacingLeft=4;spacingRight=4;overflow=hidden;rotatable=0;points=[[0,0.5],[1,0.5]];portConstraint=eastwest;fontSize=12;fontStyle=1" parent="l6Wv7LGstVZR9h47YhLv-5" vertex="1">
          <mxGeometry y="22" width="140" height="26" as="geometry" />
        </mxCell>
        <mxCell id="l6Wv7LGstVZR9h47YhLv-6" value="VendorId*" style="text;strokeColor=#10739e;fillColor=#b1ddf0;spacingLeft=4;spacingRight=4;overflow=hidden;rotatable=0;points=[[0,0.5],[1,0.5]];portConstraint=eastwest;fontSize=12;fontStyle=1" parent="l6Wv7LGstVZR9h47YhLv-5" vertex="1">
          <mxGeometry y="48" width="140" height="26" as="geometry" />
        </mxCell>
        <mxCell id="l6Wv7LGstVZR9h47YhLv-7" value="StoreName" style="text;strokeColor=#10739e;fillColor=#b1ddf0;spacingLeft=4;spacingRight=4;overflow=hidden;rotatable=0;points=[[0,0.5],[1,0.5]];portConstraint=eastwest;fontSize=12;" parent="l6Wv7LGstVZR9h47YhLv-5" vertex="1">
          <mxGeometry y="74" width="140" height="26" as="geometry" />
        </mxCell>
        <mxCell id="l6Wv7LGstVZR9h47YhLv-8" value="Address" style="text;strokeColor=#10739e;fillColor=#b1ddf0;spacingLeft=4;spacingRight=4;overflow=hidden;rotatable=0;points=[[0,0.5],[1,0.5]];portConstraint=eastwest;fontSize=12;" parent="l6Wv7LGstVZR9h47YhLv-5" vertex="1">
          <mxGeometry y="100" width="140" height="26" as="geometry" />
        </mxCell>
        <mxCell id="l6Wv7LGstVZR9h47YhLv-9" value="State" style="text;strokeColor=#10739e;fillColor=#b1ddf0;spacingLeft=4;spacingRight=4;overflow=hidden;rotatable=0;points=[[0,0.5],[1,0.5]];portConstraint=eastwest;fontSize=12;" parent="l6Wv7LGstVZR9h47YhLv-5" vertex="1">
          <mxGeometry y="126" width="140" height="26" as="geometry" />
        </mxCell>
        <mxCell id="l6Wv7LGstVZR9h47YhLv-10" value="Zip" style="text;strokeColor=#10739e;fillColor=#b1ddf0;spacingLeft=4;spacingRight=4;overflow=hidden;rotatable=0;points=[[0,0.5],[1,0.5]];portConstraint=eastwest;fontSize=12;" parent="l6Wv7LGstVZR9h47YhLv-5" vertex="1">
          <mxGeometry y="152" width="140" height="26" as="geometry" />
        </mxCell>
        <mxCell id="p-x26-pCPJ933fivSphl-71" style="edgeStyle=orthogonalEdgeStyle;rounded=0;orthogonalLoop=1;jettySize=auto;html=1;exitX=1;exitY=0.25;exitDx=0;exitDy=0;entryX=1;entryY=0.5;entryDx=0;entryDy=0;endArrow=ERoneToMany;endFill=0;" edge="1" parent="1" source="l6Wv7LGstVZR9h47YhLv-12" target="l6Wv7LGstVZR9h47YhLv-19">
          <mxGeometry relative="1" as="geometry" />
        </mxCell>
        <mxCell id="l6Wv7LGstVZR9h47YhLv-12" value="Inventory" style="swimlane;fontStyle=0;childLayout=stackLayout;horizontal=1;startSize=22;horizontalStack=0;resizeParent=1;resizeParentMax=0;resizeLast=0;collapsible=1;marginBottom=0;align=center;fontSize=14;fillColor=#0050ef;strokeColor=#001DBC;fontColor=#ffffff;" parent="1" vertex="1">
          <mxGeometry x="470" y="20" width="140" height="152" as="geometry" />
        </mxCell>
        <mxCell id="l6Wv7LGstVZR9h47YhLv-13" value="ItemId*" style="text;strokeColor=#10739e;fillColor=#b1ddf0;spacingLeft=4;spacingRight=4;overflow=hidden;rotatable=0;points=[[0,0.5],[1,0.5]];portConstraint=eastwest;fontSize=12;fontStyle=1" parent="l6Wv7LGstVZR9h47YhLv-12" vertex="1">
          <mxGeometry y="22" width="140" height="26" as="geometry" />
        </mxCell>
        <mxCell id="l6Wv7LGstVZR9h47YhLv-14" value="StoreId*" style="text;strokeColor=#10739e;fillColor=#b1ddf0;spacingLeft=4;spacingRight=4;overflow=hidden;rotatable=0;points=[[0,0.5],[1,0.5]];portConstraint=eastwest;fontSize=12;fontStyle=1" parent="l6Wv7LGstVZR9h47YhLv-12" vertex="1">
          <mxGeometry y="48" width="140" height="26" as="geometry" />
        </mxCell>
        <mxCell id="l6Wv7LGstVZR9h47YhLv-15" value="Price" style="text;strokeColor=#10739e;fillColor=#b1ddf0;spacingLeft=4;spacingRight=4;overflow=hidden;rotatable=0;points=[[0,0.5],[1,0.5]];portConstraint=eastwest;fontSize=12;" parent="l6Wv7LGstVZR9h47YhLv-12" vertex="1">
          <mxGeometry y="74" width="140" height="26" as="geometry" />
        </mxCell>
        <mxCell id="l6Wv7LGstVZR9h47YhLv-16" value="Quantity" style="text;strokeColor=#10739e;fillColor=#b1ddf0;spacingLeft=4;spacingRight=4;overflow=hidden;rotatable=0;points=[[0,0.5],[1,0.5]];portConstraint=eastwest;fontSize=12;" parent="l6Wv7LGstVZR9h47YhLv-12" vertex="1">
          <mxGeometry y="100" width="140" height="26" as="geometry" />
        </mxCell>
        <mxCell id="l6Wv7LGstVZR9h47YhLv-17" value="Description" style="text;strokeColor=#10739e;fillColor=#b1ddf0;spacingLeft=4;spacingRight=4;overflow=hidden;rotatable=0;points=[[0,0.5],[1,0.5]];portConstraint=eastwest;fontSize=12;" parent="l6Wv7LGstVZR9h47YhLv-12" vertex="1">
          <mxGeometry y="126" width="140" height="26" as="geometry" />
        </mxCell>
        <mxCell id="p-x26-pCPJ933fivSphl-69" style="edgeStyle=orthogonalEdgeStyle;rounded=0;orthogonalLoop=1;jettySize=auto;html=1;exitX=1;exitY=0.25;exitDx=0;exitDy=0;entryX=0;entryY=0.5;entryDx=0;entryDy=0;endArrow=ERoneToMany;endFill=0;" edge="1" parent="1" source="p-x26-pCPJ933fivSphl-24" target="l6Wv7LGstVZR9h47YhLv-27">
          <mxGeometry relative="1" as="geometry" />
        </mxCell>
        <mxCell id="p-x26-pCPJ933fivSphl-73" style="edgeStyle=orthogonalEdgeStyle;rounded=0;orthogonalLoop=1;jettySize=auto;html=1;exitX=1;exitY=0.25;exitDx=0;exitDy=0;entryX=0;entryY=0.5;entryDx=0;entryDy=0;endArrow=ERmandOne;endFill=0;" edge="1" parent="1" source="p-x26-pCPJ933fivSphl-24" target="l6Wv7LGstVZR9h47YhLv-32">
          <mxGeometry relative="1" as="geometry" />
        </mxCell>
        <mxCell id="p-x26-pCPJ933fivSphl-24" value="Customer" style="swimlane;fontStyle=0;childLayout=stackLayout;horizontal=1;startSize=22;horizontalStack=0;resizeParent=1;resizeParentMax=0;resizeLast=0;collapsible=1;marginBottom=0;align=center;fontSize=14;fillColor=#0050ef;strokeColor=#001DBC;fontColor=#ffffff;" vertex="1" parent="1">
          <mxGeometry x="50" y="190" width="140" height="152" as="geometry" />
        </mxCell>
        <mxCell id="p-x26-pCPJ933fivSphl-25" value="AccountId*" style="text;strokeColor=#10739e;fillColor=#b1ddf0;spacingLeft=4;spacingRight=4;overflow=hidden;rotatable=0;points=[[0,0.5],[1,0.5]];portConstraint=eastwest;fontSize=12;fontStyle=1" vertex="1" parent="p-x26-pCPJ933fivSphl-24">
          <mxGeometry y="22" width="140" height="26" as="geometry" />
        </mxCell>
        <mxCell id="p-x26-pCPJ933fivSphl-26" value="CustomerId*" style="text;strokeColor=#10739e;fillColor=#b1ddf0;spacingLeft=4;spacingRight=4;overflow=hidden;rotatable=0;points=[[0,0.5],[1,0.5]];portConstraint=eastwest;fontSize=12;fontStyle=1" vertex="1" parent="p-x26-pCPJ933fivSphl-24">
          <mxGeometry y="48" width="140" height="26" as="geometry" />
        </mxCell>
        <mxCell id="p-x26-pCPJ933fivSphl-29" value="DefaultAddressId*" style="text;strokeColor=#10739e;fillColor=#b1ddf0;spacingLeft=4;spacingRight=4;overflow=hidden;rotatable=0;points=[[0,0.5],[1,0.5]];portConstraint=eastwest;fontSize=12;fontStyle=1" vertex="1" parent="p-x26-pCPJ933fivSphl-24">
          <mxGeometry y="74" width="140" height="26" as="geometry" />
        </mxCell>
        <mxCell id="p-x26-pCPJ933fivSphl-27" value="FirstName" style="text;strokeColor=#10739e;fillColor=#b1ddf0;spacingLeft=4;spacingRight=4;overflow=hidden;rotatable=0;points=[[0,0.5],[1,0.5]];portConstraint=eastwest;fontSize=12;" vertex="1" parent="p-x26-pCPJ933fivSphl-24">
          <mxGeometry y="100" width="140" height="26" as="geometry" />
        </mxCell>
        <mxCell id="p-x26-pCPJ933fivSphl-28" value="LastName" style="text;strokeColor=#10739e;fillColor=#b1ddf0;spacingLeft=4;spacingRight=4;overflow=hidden;rotatable=0;points=[[0,0.5],[1,0.5]];portConstraint=eastwest;fontSize=12;" vertex="1" parent="p-x26-pCPJ933fivSphl-24">
          <mxGeometry y="126" width="140" height="26" as="geometry" />
        </mxCell>
        <mxCell id="p-x26-pCPJ933fivSphl-70" style="edgeStyle=orthogonalEdgeStyle;rounded=0;orthogonalLoop=1;jettySize=auto;html=1;exitX=1;exitY=0.5;exitDx=0;exitDy=0;entryX=0;entryY=0.5;entryDx=0;entryDy=0;endArrow=ERoneToMany;endFill=0;" edge="1" parent="1" source="l6Wv7LGstVZR9h47YhLv-24" target="l6Wv7LGstVZR9h47YhLv-20">
          <mxGeometry relative="1" as="geometry" />
        </mxCell>
        <mxCell id="p-x26-pCPJ933fivSphl-1" value="StoreReview" style="swimlane;fontStyle=0;childLayout=stackLayout;horizontal=1;startSize=26;horizontalStack=0;resizeParent=1;resizeParentMax=0;resizeLast=0;collapsible=1;marginBottom=0;align=center;fontSize=14;fillColor=#0050ef;strokeColor=#001DBC;fontColor=#ffffff;" vertex="1" parent="1">
          <mxGeometry x="250" y="-140" width="160" height="104" as="geometry" />
        </mxCell>
        <mxCell id="p-x26-pCPJ933fivSphl-2" value="ReviewId*" style="text;strokeColor=#10739e;fillColor=#b1ddf0;spacingLeft=4;spacingRight=4;overflow=hidden;rotatable=0;points=[[0,0.5],[1,0.5]];portConstraint=eastwest;fontSize=12;fontStyle=1" vertex="1" parent="p-x26-pCPJ933fivSphl-1">
          <mxGeometry y="26" width="160" height="26" as="geometry" />
        </mxCell>
        <mxCell id="p-x26-pCPJ933fivSphl-4" value="StoreId*" style="text;strokeColor=#10739e;fillColor=#b1ddf0;spacingLeft=4;spacingRight=4;overflow=hidden;rotatable=0;points=[[0,0.5],[1,0.5]];portConstraint=eastwest;fontSize=12;verticalAlign=top;fontStyle=1" vertex="1" parent="p-x26-pCPJ933fivSphl-1">
          <mxGeometry y="52" width="160" height="26" as="geometry" />
        </mxCell>
        <mxCell id="p-x26-pCPJ933fivSphl-3" value="Rating" style="text;strokeColor=#10739e;fillColor=#b1ddf0;spacingLeft=4;spacingRight=4;overflow=hidden;rotatable=0;points=[[0,0.5],[1,0.5]];portConstraint=eastwest;fontSize=12;" vertex="1" parent="p-x26-pCPJ933fivSphl-1">
          <mxGeometry y="78" width="160" height="26" as="geometry" />
        </mxCell>
        <mxCell id="p-x26-pCPJ933fivSphl-74" style="edgeStyle=orthogonalEdgeStyle;rounded=0;orthogonalLoop=1;jettySize=auto;html=1;exitX=1;exitY=0.25;exitDx=0;exitDy=0;entryX=-0.006;entryY=0.154;entryDx=0;entryDy=0;entryPerimeter=0;endArrow=ERoneToMany;endFill=0;" edge="1" parent="1" source="l6Wv7LGstVZR9h47YhLv-30" target="p-x26-pCPJ933fivSphl-8">
          <mxGeometry relative="1" as="geometry" />
        </mxCell>
        <mxCell id="l6Wv7LGstVZR9h47YhLv-30" value="Cart" style="swimlane;fontStyle=0;childLayout=stackLayout;horizontal=1;startSize=26;horizontalStack=0;resizeParent=1;resizeParentMax=0;resizeLast=0;collapsible=1;marginBottom=0;align=center;fontSize=14;fillColor=#0050ef;strokeColor=#001DBC;fontColor=#ffffff;" parent="1" vertex="1">
          <mxGeometry x="280" y="260" width="160" height="104" as="geometry" />
        </mxCell>
        <mxCell id="l6Wv7LGstVZR9h47YhLv-31" value="CartId*" style="text;strokeColor=#10739e;fillColor=#b1ddf0;spacingLeft=4;spacingRight=4;overflow=hidden;rotatable=0;points=[[0,0.5],[1,0.5]];portConstraint=eastwest;fontSize=12;fontStyle=1" parent="l6Wv7LGstVZR9h47YhLv-30" vertex="1">
          <mxGeometry y="26" width="160" height="26" as="geometry" />
        </mxCell>
        <mxCell id="l6Wv7LGstVZR9h47YhLv-32" value="CustomerId*" style="text;strokeColor=#10739e;fillColor=#b1ddf0;spacingLeft=4;spacingRight=4;overflow=hidden;rotatable=0;points=[[0,0.5],[1,0.5]];portConstraint=eastwest;fontSize=12;fontStyle=1" parent="l6Wv7LGstVZR9h47YhLv-30" vertex="1">
          <mxGeometry y="52" width="160" height="26" as="geometry" />
        </mxCell>
        <mxCell id="l6Wv7LGstVZR9h47YhLv-33" value="Date" style="text;strokeColor=#10739e;fillColor=#b1ddf0;spacingLeft=4;spacingRight=4;overflow=hidden;rotatable=0;points=[[0,0.5],[1,0.5]];portConstraint=eastwest;fontSize=12;" parent="l6Wv7LGstVZR9h47YhLv-30" vertex="1">
          <mxGeometry y="78" width="160" height="26" as="geometry" />
        </mxCell>
        <mxCell id="p-x26-pCPJ933fivSphl-6" value="CartItems" style="swimlane;fontStyle=0;childLayout=stackLayout;horizontal=1;startSize=26;horizontalStack=0;resizeParent=1;resizeParentMax=0;resizeLast=0;collapsible=1;marginBottom=0;align=center;fontSize=14;fillColor=#0050ef;strokeColor=#001DBC;fontColor=#ffffff;" vertex="1" parent="1">
          <mxGeometry x="530" y="210" width="160" height="104" as="geometry" />
        </mxCell>
        <mxCell id="p-x26-pCPJ933fivSphl-7" value="ItemId*" style="text;strokeColor=#10739e;fillColor=#b1ddf0;spacingLeft=4;spacingRight=4;overflow=hidden;rotatable=0;points=[[0,0.5],[1,0.5]];portConstraint=eastwest;fontSize=12;fontStyle=1" vertex="1" parent="p-x26-pCPJ933fivSphl-6">
          <mxGeometry y="26" width="160" height="26" as="geometry" />
        </mxCell>
        <mxCell id="p-x26-pCPJ933fivSphl-8" value="CartId*" style="text;strokeColor=#10739e;fillColor=#b1ddf0;spacingLeft=4;spacingRight=4;overflow=hidden;rotatable=0;points=[[0,0.5],[1,0.5]];portConstraint=eastwest;fontSize=12;fontStyle=1" vertex="1" parent="p-x26-pCPJ933fivSphl-6">
          <mxGeometry y="52" width="160" height="26" as="geometry" />
        </mxCell>
        <mxCell id="p-x26-pCPJ933fivSphl-9" value="Quantity" style="text;strokeColor=#10739e;fillColor=#b1ddf0;spacingLeft=4;spacingRight=4;overflow=hidden;rotatable=0;points=[[0,0.5],[1,0.5]];portConstraint=eastwest;fontSize=12;" vertex="1" parent="p-x26-pCPJ933fivSphl-6">
          <mxGeometry y="78" width="160" height="26" as="geometry" />
        </mxCell>
        <mxCell id="l6Wv7LGstVZR9h47YhLv-18" value="OrderedItems" style="swimlane;fontStyle=0;childLayout=stackLayout;horizontal=1;startSize=26;horizontalStack=0;resizeParent=1;resizeParentMax=0;resizeLast=0;collapsible=1;marginBottom=0;align=center;fontSize=14;fillColor=#0050ef;strokeColor=#001DBC;fontColor=#ffffff;" parent="1" vertex="1">
          <mxGeometry x="590" y="480" width="160" height="104" as="geometry" />
        </mxCell>
        <mxCell id="l6Wv7LGstVZR9h47YhLv-19" value="ItemId*" style="text;strokeColor=#10739e;fillColor=#b1ddf0;spacingLeft=4;spacingRight=4;overflow=hidden;rotatable=0;points=[[0,0.5],[1,0.5]];portConstraint=eastwest;fontSize=12;fontStyle=1" parent="l6Wv7LGstVZR9h47YhLv-18" vertex="1">
          <mxGeometry y="26" width="160" height="26" as="geometry" />
        </mxCell>
        <mxCell id="l6Wv7LGstVZR9h47YhLv-20" value="OrderId*" style="text;strokeColor=#10739e;fillColor=#b1ddf0;spacingLeft=4;spacingRight=4;overflow=hidden;rotatable=0;points=[[0,0.5],[1,0.5]];portConstraint=eastwest;fontSize=12;fontStyle=1" parent="l6Wv7LGstVZR9h47YhLv-18" vertex="1">
          <mxGeometry y="52" width="160" height="26" as="geometry" />
        </mxCell>
        <mxCell id="l6Wv7LGstVZR9h47YhLv-21" value="Quantity" style="text;strokeColor=#10739e;fillColor=#b1ddf0;spacingLeft=4;spacingRight=4;overflow=hidden;rotatable=0;points=[[0,0.5],[1,0.5]];portConstraint=eastwest;fontSize=12;" parent="l6Wv7LGstVZR9h47YhLv-18" vertex="1">
          <mxGeometry y="78" width="160" height="26" as="geometry" />
        </mxCell>
        <mxCell id="l6Wv7LGstVZR9h47YhLv-23" value="Orders" style="swimlane;fontStyle=0;childLayout=stackLayout;horizontal=1;startSize=26;horizontalStack=0;resizeParent=1;resizeParentMax=0;resizeLast=0;collapsible=1;marginBottom=0;align=center;fontSize=14;fillColor=#0050ef;strokeColor=#001DBC;fontColor=#ffffff;" parent="1" vertex="1">
          <mxGeometry x="150" y="480" width="160" height="182" as="geometry" />
        </mxCell>
        <mxCell id="l6Wv7LGstVZR9h47YhLv-24" value="OrderId*" style="text;strokeColor=#10739e;fillColor=#b1ddf0;spacingLeft=4;spacingRight=4;overflow=hidden;rotatable=0;points=[[0,0.5],[1,0.5]];portConstraint=eastwest;fontSize=12;fontStyle=1" parent="l6Wv7LGstVZR9h47YhLv-23" vertex="1">
          <mxGeometry y="26" width="160" height="26" as="geometry" />
        </mxCell>
        <mxCell id="l6Wv7LGstVZR9h47YhLv-27" value="CustomerId*" style="text;strokeColor=#10739e;fillColor=#b1ddf0;spacingLeft=4;spacingRight=4;overflow=hidden;rotatable=0;points=[[0,0.5],[1,0.5]];portConstraint=eastwest;fontSize=12;fontStyle=1" parent="l6Wv7LGstVZR9h47YhLv-23" vertex="1">
          <mxGeometry y="52" width="160" height="26" as="geometry" />
        </mxCell>
        <mxCell id="p-x26-pCPJ933fivSphl-53" value="DriverId*" style="text;strokeColor=#10739e;fillColor=#b1ddf0;spacingLeft=4;spacingRight=4;overflow=hidden;rotatable=0;points=[[0,0.5],[1,0.5]];portConstraint=eastwest;fontSize=12;fontStyle=1" vertex="1" parent="l6Wv7LGstVZR9h47YhLv-23">
          <mxGeometry y="78" width="160" height="26" as="geometry" />
        </mxCell>
        <mxCell id="p-x26-pCPJ933fivSphl-38" value="CustomerAddressId*" style="text;strokeColor=#0e8088;fillColor=#b0e3e6;spacingLeft=4;spacingRight=4;overflow=hidden;rotatable=0;points=[[0,0.5],[1,0.5]];portConstraint=eastwest;fontSize=12;fontStyle=1" vertex="1" parent="l6Wv7LGstVZR9h47YhLv-23">
          <mxGeometry y="104" width="160" height="26" as="geometry" />
        </mxCell>
        <mxCell id="l6Wv7LGstVZR9h47YhLv-26" value="Shipped" style="text;strokeColor=#10739e;fillColor=#b1ddf0;spacingLeft=4;spacingRight=4;overflow=hidden;rotatable=0;points=[[0,0.5],[1,0.5]];portConstraint=eastwest;fontSize=12;" parent="l6Wv7LGstVZR9h47YhLv-23" vertex="1">
          <mxGeometry y="130" width="160" height="26" as="geometry" />
        </mxCell>
        <mxCell id="l6Wv7LGstVZR9h47YhLv-29" value="DateOrdered" style="text;strokeColor=#10739e;fillColor=#b1ddf0;spacingLeft=4;spacingRight=4;overflow=hidden;rotatable=0;points=[[0,0.5],[1,0.5]];portConstraint=eastwest;fontSize=12;" parent="l6Wv7LGstVZR9h47YhLv-23" vertex="1">
          <mxGeometry y="156" width="160" height="26" as="geometry" />
        </mxCell>
      </root>
    </mxGraphModel>
  </diagram>
</mxfile>
